<svg width="106" height="27" viewBox="0 0 106 27" fill="none" xmlns="http://www.w3.org/2000/svg">
<path d="M16.598 26V21.104H6.466V1.792H0.754V26H16.598ZM18.7902 13.896C18.7902 21.58 24.2302 26.85 32.1862 26.85C40.1082 26.85 45.5822 21.58 45.5822 13.896C45.5822 6.246 40.1082 0.941998 32.1862 0.941998C24.2302 0.941998 18.7902 6.246 18.7902 13.896ZM24.5022 13.896C24.5022 9.17 27.6642 5.838 32.1862 5.838C36.7082 5.838 39.8702 9.17 39.8702 13.896C39.8702 18.622 36.7082 21.954 32.1862 21.954C27.6642 21.92 24.5022 18.622 24.5022 13.896ZM69.511 16.004C69.307 19.37 66.213 21.954 62.371 21.954C57.815 21.954 54.551 18.554 54.551 13.896C54.551 9.204 57.747 5.838 62.201 5.838C65.057 5.838 67.641 7.47 68.423 9.714L73.659 8.558C72.469 4.104 67.777 0.941998 62.235 0.941998C54.449 0.941998 48.839 6.382 48.839 13.896C48.839 21.41 54.449 26.85 62.235 26.85C70.395 26.85 75.801 20.73 75.019 12.264H62.031V16.004H69.511ZM78.3566 13.896C78.3566 21.58 83.7966 26.85 91.7526 26.85C99.6746 26.85 105.149 21.58 105.149 13.896C105.149 6.246 99.6746 0.941998 91.7526 0.941998C83.7966 0.941998 78.3566 6.246 78.3566 13.896ZM84.0686 13.896C84.0686 9.17 87.2306 5.838 91.7526 5.838C96.2746 5.838 99.4366 9.17 99.4366 13.896C99.4366 18.622 96.2746 21.954 91.7526 21.954C87.2306 21.92 84.0686 18.622 84.0686 13.896Z" fill="white"/>
</svg>
